<svg width="38" height="38" viewBox="0 0 38 38" fill="none" xmlns="http://www.w3.org/2000/svg">
<g id="Vector">
<path d="M22.9241 8.54034C24.5212 8.85193 25.9889 9.633 27.1395 10.7836C28.2901 11.9341 29.0711 13.4019 29.3827 14.9989M22.9241 2C26.2422 2.36861 29.3363 3.85447 31.6984 6.21363C34.0605 8.57278 35.5503 11.665 35.9231 14.9826M34.288 28.0306V32.9358C34.2898 33.3912 34.1966 33.8419 34.0141 34.2592C33.8317 34.6764 33.5641 35.0509 33.2286 35.3588C32.893 35.6666 32.4969 35.901 32.0655 36.0469C31.6341 36.1928 31.177 36.247 30.7235 36.206C25.6921 35.6593 20.859 33.94 16.6127 31.1863C12.6621 28.6759 9.31261 25.3264 6.80221 21.3758C4.03888 17.1102 2.3192 12.2536 1.7825 7.19957C1.74164 6.74741 1.79537 6.29171 1.94028 5.86146C2.08519 5.43121 2.3181 5.03584 2.62418 4.70054C2.93026 4.36524 3.30281 4.09734 3.7181 3.9139C4.13339 3.73047 4.58232 3.63551 5.03632 3.63508H9.94157C10.7351 3.62727 11.5044 3.90827 12.106 4.4257C12.7077 4.94313 13.1007 5.66169 13.2117 6.44743C13.4188 8.01722 13.8027 9.55855 14.3563 11.042C14.5763 11.6273 14.6239 12.2633 14.4935 12.8748C14.3631 13.4862 14.0601 14.0475 13.6205 14.492L11.544 16.5686C13.8716 20.6621 17.261 24.0515 21.3545 26.3791L23.431 24.3026C23.8756 23.8629 24.4369 23.56 25.0483 23.4296C25.6598 23.2992 26.2958 23.3468 26.8811 23.5668C28.3645 24.1203 29.9059 24.5043 31.4756 24.7113C32.2699 24.8234 32.9953 25.2234 33.5138 25.8354C34.0324 26.4474 34.3079 27.2287 34.288 28.0306Z" fill="#68BFA8"/>
<path d="M22.9241 8.54034C24.5212 8.85193 25.9889 9.633 27.1395 10.7836C28.2901 11.9341 29.0711 13.4019 29.3827 14.9989M22.9241 2C26.2422 2.36861 29.3363 3.85447 31.6984 6.21363C34.0605 8.57278 35.5503 11.665 35.9231 14.9826M34.288 28.0306V32.9358C34.2898 33.3912 34.1966 33.8419 34.0141 34.2592C33.8317 34.6764 33.5641 35.0509 33.2286 35.3588C32.893 35.6666 32.4969 35.901 32.0655 36.0469C31.6341 36.1928 31.177 36.247 30.7235 36.206C25.6921 35.6593 20.859 33.94 16.6127 31.1863C12.6621 28.6759 9.31261 25.3264 6.80221 21.3758C4.03888 17.1102 2.3192 12.2536 1.7825 7.19957C1.74164 6.74741 1.79537 6.29171 1.94028 5.86146C2.08519 5.43121 2.3181 5.03584 2.62418 4.70054C2.93026 4.36524 3.30281 4.09734 3.7181 3.9139C4.13339 3.73047 4.58232 3.63551 5.03632 3.63508H9.94157C10.7351 3.62727 11.5044 3.90827 12.106 4.4257C12.7077 4.94313 13.1007 5.66169 13.2117 6.44743C13.4188 8.01722 13.8027 9.55855 14.3563 11.042C14.5763 11.6273 14.6239 12.2633 14.4935 12.8748C14.3631 13.4862 14.0601 14.0475 13.6205 14.492L11.544 16.5686C13.8716 20.6621 17.261 24.0515 21.3545 26.3791L23.431 24.3026C23.8756 23.8629 24.4369 23.56 25.0483 23.4296C25.6598 23.2992 26.2958 23.3468 26.8811 23.5668C28.3645 24.1203 29.9059 24.5043 31.4756 24.7113C32.2699 24.8234 32.9953 25.2234 33.5138 25.8354C34.0324 26.4474 34.3079 27.2287 34.288 28.0306Z" stroke="#68BFA8" stroke-width="3.27017" stroke-linecap="round" stroke-linejoin="round"/>
</g>
</svg>
