<svg width="12" height="10" viewBox="0 0 12 10" fill="none" xmlns="http://www.w3.org/2000/svg">
<path id="Vector" d="M10.7984 2.48342L5.0561 8.77616C4.96753 8.88005 4.85748 8.96347 4.73356 9.02069C4.60963 9.0779 4.47478 9.10753 4.3383 9.10753C4.20182 9.10753 4.06697 9.0779 3.94304 9.02069C3.81912 8.96347 3.70908 8.88005 3.62051 8.77616L1.1916 6.06928C1.10462 5.97497 1.03705 5.86444 0.992759 5.744C0.948468 5.62356 0.928319 5.49557 0.933464 5.36734C0.938609 5.23912 0.968947 5.11315 1.02275 4.99666C1.07654 4.88016 1.15275 4.7754 1.24701 4.68837C1.34127 4.60134 1.45175 4.53374 1.57212 4.48942C1.69249 4.44511 1.82042 4.42495 1.94858 4.4301C2.07674 4.43524 2.20263 4.4656 2.31906 4.51942C2.4355 4.57325 2.5402 4.6495 2.62718 4.74381L4.3383 6.67857L9.36284 1.20989C9.44925 1.11456 9.5538 1.0374 9.67035 0.982938C9.7869 0.928473 9.91312 0.897786 10.0417 0.892672C10.1702 0.887558 10.2985 0.908116 10.419 0.953149C10.5395 0.998182 10.6498 1.06679 10.7435 1.15496C10.9241 1.32544 11.0309 1.55979 11.0412 1.808C11.0515 2.05621 10.9643 2.29861 10.7984 2.48342Z" fill="white"/>
</svg>
