<svg width="13" height="13" viewBox="0 0 13 13" fill="none" xmlns="http://www.w3.org/2000/svg">
<g id="Frame">
<g id="Group">
<g id="Group_2">
<path id="Vector" d="M6.21951 12.3855H6.20651C5.00434 12.3821 3.82814 12.0357 2.81642 11.3871L0.468742 11.9981L1.09839 9.71878L0.948472 9.48416C0.217152 8.32107 -0.106704 6.94826 0.0277697 5.58135C0.162243 4.21444 0.747428 2.93087 1.69141 1.93225C2.6354 0.93362 3.8847 0.276509 5.24311 0.0641212C6.60152 -0.148266 7.99207 0.0961024 9.19636 0.758846C10.4006 1.42159 11.3505 2.46516 11.8966 3.72566C12.4427 4.98615 12.5543 6.39215 12.2137 7.72284C11.8731 9.05352 11.0997 10.2335 10.0149 11.0774C8.93011 11.9214 7.59444 12.3815 6.21951 12.3855Z" fill="#4CAF50"/>
<path id="Vector_2" d="M9.60759 7.89976L9.60159 7.95168C9.4137 7.85184 8.50221 7.35265 8.33031 7.28276C7.94852 7.12601 8.05646 7.2578 7.32287 8.19129C7.21394 8.32607 7.105 8.33705 6.9231 8.2432C6.3644 7.99531 5.8562 7.64671 5.42394 7.21487C5.01317 6.78871 4.66521 6.30631 4.39052 5.78219C4.20763 5.43176 4.59041 5.38284 4.93722 4.65103C4.96195 4.59329 4.97336 4.53074 4.97059 4.468C4.96783 4.40526 4.95095 4.34395 4.92123 4.28861C4.87425 4.18877 4.50246 3.16743 4.34655 2.76109C4.19064 2.35475 4.04672 2.40766 3.92778 2.40766C3.77736 2.36676 3.61865 2.36735 3.46854 2.40936C3.31842 2.45138 3.18251 2.53325 3.07526 2.64627C2.06983 3.87428 2.32369 5.14223 3.1832 6.48905C4.87525 8.94706 5.77674 9.40033 7.42382 10.0273C7.80066 10.1549 8.20396 10.1837 8.59516 10.1112C8.86289 10.0455 9.11349 9.92342 9.33015 9.75313C9.54682 9.58284 9.72455 9.36827 9.85145 9.12378C9.97576 8.81073 10.0144 8.47027 9.96339 8.13738C9.91741 8.04353 9.79548 7.99161 9.60859 7.89876L9.60759 7.89976Z" fill="#FAFAFA"/>
</g>
</g>
</g>
</svg>
